<svg width="44" height="44" viewBox="0 0 44 44" fill="none" xmlns="http://www.w3.org/2000/svg">
<path fill-rule="evenodd" clip-rule="evenodd" d="M39.501 9.37017C40.0166 9.88587 40.3062 10.5852 40.3062 11.3144C40.3062 12.0436 40.0166 12.743 39.501 13.2587L18.8889 33.8708C18.6165 34.1433 18.2931 34.3594 17.9371 34.5069C17.5812 34.6543 17.1997 34.7302 16.8144 34.7302C16.4292 34.7302 16.0477 34.6543 15.6918 34.5069C15.3358 34.3594 15.0124 34.1433 14.74 33.8708L4.49903 23.6317C4.23637 23.378 4.02687 23.0745 3.88275 22.739C3.73862 22.4035 3.66276 22.0427 3.65959 21.6775C3.65642 21.3124 3.726 20.9503 3.86427 20.6123C4.00254 20.2743 4.20674 19.9673 4.46494 19.7091C4.72315 19.4509 5.03019 19.2467 5.36815 19.1084C5.70612 18.9701 6.06824 18.9006 6.43338 18.9037C6.79852 18.9069 7.15938 18.9828 7.49489 19.1269C7.8304 19.271 8.13385 19.4805 8.38753 19.7432L16.8135 28.1692L35.6107 9.37017C35.8661 9.11462 36.1693 8.9119 36.5031 8.77359C36.8368 8.63528 37.1946 8.56409 37.5559 8.56409C37.9171 8.56409 38.2749 8.63528 38.6087 8.77359C38.9424 8.9119 39.2456 9.11462 39.501 9.37017Z" fill="black"/>
</svg>
